<?xml version="1.0" encoding="utf-8"?>
<svg width="24" height="24" viewBox="0 0 24 24" fill="none" xmlns="http://www.w3.org/2000/svg">
  <defs/>
  <path d="M 4.222 19.778 C 2.309 17.819 1 14.966 1 12 C 1 9.034 2.309 6.181 4.222 4.222 C 6.181 2.309 9.034 1 12 1 C 14.966 1 17.819 2.309 19.778 4.222 C 21.691 6.181 23 9.034 23 12 C 23 14.966 21.691 17.819 19.778 19.778 C 17.819 21.691 14.966 23 12 23 C 9.034 23 6.181 21.691 4.222 19.778 Z M 12 21 C 14.557 21 16.704 20.071 18.364 18.364 C 20.071 16.704 21 14.557 21 12 C 21 9.443 20.071 7.296 18.364 5.636 C 16.704 3.929 14.557 3 12 3 C 9.443 3 7.296 3.929 5.636 5.636 C 3.929 7.296 3 9.443 3 12 C 3 14.557 3.929 16.704 5.636 18.364 C 7.296 20.071 9.443 21 12 21 Z" style="fill: rgb(50, 50, 50);"/>
  <path fill-rule="evenodd" clip-rule="evenodd" d="M12 18.5C12.6904 18.5 13.25 17.9404 13.25 17.25C13.25 16.5597 12.6904 16 12 16C11.3097 16 10.75 16.5597 10.75 17.25C10.75 17.9404 11.3097 18.5 12 18.5Z" fill="#323232"/>
  <path d="M 12 5 C 12.552 5 13 5.448 13 6 L 13 14 C 13 14.552 12.552 15 12 15 C 11.448 15 11 14.552 11 14 L 11 6 C 11 5.448 11.448 5 12 5 Z" style="fill: rgb(50, 50, 50);"/>
</svg>