<?xml version="1.0" encoding="utf-8"?>
<svg width="24" height="24" viewBox="0 0 24 24" fill="none" xmlns="http://www.w3.org/2000/svg">
  <path d="M 3 7 C 3 6.448 3.448 6 4 6 L 20 6 C 20.552 6 21 6.448 21 7 C 21 7.552 20.552 8 20 8 L 4 8 C 3.448 8 3 7.552 3 7 Z" style="fill: rgb(50, 50, 50);"/>
  <path d="M 10 10 C 10.552 10 11 10.448 11 11 L 11 17 C 11 17.552 10.552 18 10 18 C 9.448 18 9 17.552 9 17 L 9 11 C 9 10.448 9.448 10 10 10 Z" style="fill: rgb(50, 50, 50);"/>
  <path d="M 14 10 C 14.552 10 15 10.448 15 11 L 15 17 C 15 17.552 14.552 18 14 18 C 13.448 18 13 17.552 13 17 L 13 11 C 13 10.448 13.448 10 14 10 Z" style="fill: rgb(50, 50, 50);"/>
  <path d="M 6.048 8 C 5.081 8 5.116 8 4.123 8 L 5.003 19.083 C 5.042 19.805 5.395 20.584 5.879 21.121 C 6.416 21.605 7.278 21.962 8 22 L 16 22 C 16.722 21.962 17.611 21.632 18.121 21.121 C 18.632 20.611 18.962 19.722 19 19 L 19.914 8 C 19.171 8 18.972 8 17.972 8 L 17 19 C 16.944 19.363 17.01 19.44 16.757 19.73 C 16.504 20.02 16.379 19.97 16 20 L 8 20 C 7.617 19.959 7.5 20.031 7.287 19.764 C 7.02 19.551 7.034 19.308 6.997 18.917 L 6.048 8 Z" style="fill: rgb(50, 50, 50);"/>
  <path d="M 9 8 C 8.448 8 8 7.552 8 7 L 8 4 C 8.038 3.543 8.29 2.936 8.586 2.586 C 8.936 2.29 9.543 2.038 10 2 L 14 2 C 14.457 2.038 15.065 2.29 15.414 2.586 C 15.71 2.936 15.962 3.543 16 4 L 16 7 C 16 7.552 15.552 8 15 8 C 14.448 8 14 7.552 14 7 L 14 4 C 14.038 3.926 14.079 4.025 14 4 C 14 4 14.074 3.962 14 4 L 10 4 C 9.926 3.962 10.025 3.921 10 4 C 10 4 9.962 3.926 10 4 L 10 7 C 10 7.552 9.552 8 9 8 Z" style="fill: rgb(50, 50, 50);"/>
  <defs/>
</svg>