<svg width="32" height="32" viewBox="0 0 32 32" fill="none" xmlns="http://www.w3.org/2000/svg">
<g clip-path="url(#clip0_30409_8098)">
<path d="M4 10.6663C4 11.3997 4.6 11.9997 5.33333 11.9997C6.06667 11.9997 6.66667 11.3997 6.66667 10.6663V7.99967H9.33333C10.0667 7.99967 10.6667 7.39967 10.6667 6.66634C10.6667 5.93301 10.0667 5.33301 9.33333 5.33301H6.66667V2.66634C6.66667 1.93301 6.06667 1.33301 5.33333 1.33301C4.6 1.33301 4 1.93301 4 2.66634V5.33301H1.33333C0.6 5.33301 0 5.93301 0 6.66634C0 7.39967 0.6 7.99967 1.33333 7.99967H4V10.6663Z" fill="#ED5434"/>
<path d="M17.333 22.667C19.5421 22.667 21.333 20.8761 21.333 18.667C21.333 16.4579 19.5421 14.667 17.333 14.667C15.1239 14.667 13.333 16.4579 13.333 18.667C13.333 20.8761 15.1239 22.667 17.333 22.667Z" fill="#ED5434"/>
<path d="M28 7.99967H23.7733L22.12 6.19967C21.6267 5.65301 20.9067 5.33301 20.16 5.33301H11.6267C11.8533 5.73301 12 6.17301 12 6.66634C12 8.13301 10.8 9.33301 9.33333 9.33301H8V10.6663C8 12.133 6.8 13.333 5.33333 13.333C4.84 13.333 4.4 13.1863 4 12.9597V26.6663C4 28.133 5.2 29.333 6.66667 29.333H28C29.4667 29.333 30.6667 28.133 30.6667 26.6663V10.6663C30.6667 9.19967 29.4667 7.99967 28 7.99967ZM17.3333 25.333C13.6533 25.333 10.6667 22.3463 10.6667 18.6663C10.6667 14.9863 13.6533 11.9997 17.3333 11.9997C21.0133 11.9997 24 14.9863 24 18.6663C24 22.3463 21.0133 25.333 17.3333 25.333Z" fill="#ED5434"/>
</g>
<defs>
<clipPath id="clip0_30409_8098">
<rect width="32" height="32" fill="white"/>
</clipPath>
</defs>
</svg>
