<svg width="36" height="36" viewBox="0 0 36 36" fill="none" xmlns="http://www.w3.org/2000/svg">
<g id="Frame">
<path id="Vector" d="M27 16.9072L18.49 25.3791C17.4475 26.4169 16.0335 27 14.5591 27C13.0848 27 11.6708 26.4169 10.6282 25.3791C9.58569 24.3412 9 22.9335 9 21.4658C9 19.998 9.58569 18.5904 10.6282 17.5525L19.1382 9.08062C19.8332 8.38871 20.7759 8 21.7588 8C22.7417 8 23.6844 8.38871 24.3794 9.08062C25.0744 9.77254 25.4649 10.711 25.4649 11.6895C25.4649 12.668 25.0744 13.6064 24.3794 14.2983L15.8602 22.7702C15.5126 23.1162 15.0413 23.3105 14.5499 23.3105C14.0584 23.3105 13.5871 23.1162 13.2396 22.7702C12.8921 22.4243 12.6968 21.955 12.6968 21.4658C12.6968 20.9765 12.8921 20.5073 13.2396 20.1614L21.1013 12.344" stroke="#9B9FAA" stroke-width="1.6" stroke-linecap="round" stroke-linejoin="round"/>
</g>
</svg>
