<svg width="16" height="16" viewBox="0 0 16 16" fill="none" xmlns="http://www.w3.org/2000/svg">
<path fill-rule="evenodd" clip-rule="evenodd" d="M11.7712 3.28608C12.0316 3.02573 12.4537 3.02573 12.7141 3.28608C12.9744 3.54643 12.9744 3.96854 12.7141 4.22889L8.94281 8.00013L12.7141 11.7714C12.9744 12.0317 12.9744 12.4538 12.7141 12.7142C12.4537 12.9745 12.0316 12.9745 11.7712 12.7142L8.00001 8.94294L4.22877 12.7142C3.96842 12.9745 3.54631 12.9745 3.28596 12.7142C3.02561 12.4538 3.02561 12.0317 3.28596 11.7714L7.0572 8.00013L3.28596 4.22889C3.02561 3.96854 3.02561 3.54643 3.28596 3.28608C3.54631 3.02573 3.96842 3.02573 4.22877 3.28608L8.00001 7.05732L11.7712 3.28608Z" fill="#DEE2E7"/>
</svg>
