<svg width="16" height="16" viewBox="0 0 16 16" fill="none" xmlns="http://www.w3.org/2000/svg">
<g id="Frame">
<path id="Vector" d="M10 8C10 8.53043 9.78929 9.03914 9.41421 9.41421C9.03914 9.78929 8.53043 10 8 10C7.46957 10 6.96086 9.78929 6.58579 9.41421C6.21071 9.03914 6 8.53043 6 8C6 7.46957 6.21071 6.96086 6.58579 6.58579C6.96086 6.21071 7.46957 6 8 6C8.53043 6 9.03914 6.21071 9.41421 6.58579C9.78929 6.96086 10 7.46957 10 8Z" fill="#9B9FAA"/>
<path id="Vector_2" d="M14.5963 7.70167C13.1576 4.82367 10.603 3.33301 8.0003 3.33301C5.39829 3.33301 2.84296 4.82367 1.40429 7.70167C1.35806 7.79421 1.33398 7.89623 1.33398 7.99967C1.33398 8.10312 1.35806 8.20514 1.40429 8.29767C2.84296 11.1757 5.39763 12.6663 8.0003 12.6663C10.6023 12.6663 13.1576 11.1757 14.5963 8.29767C14.6425 8.20514 14.6666 8.10312 14.6666 7.99967C14.6666 7.89623 14.6425 7.79421 14.5963 7.70167ZM8.0003 11.333C6.02096 11.333 3.99896 10.253 2.75363 7.99967C3.99896 5.74634 6.0203 4.66634 8.0003 4.66634C9.97963 4.66634 12.0016 5.74634 13.247 7.99967C12.0016 10.253 9.97963 11.333 8.0003 11.333Z" fill="#9B9FAA"/>
</g>
</svg>
