<svg width="16" height="16" viewBox="0 0 16 16" fill="none" xmlns="http://www.w3.org/2000/svg">
<g id="Frame 28">
<path id="Vector" d="M7.84903 4.10838L8.276 4.53408L8.70296 4.10838C8.9829 3.82681 9.31587 3.60314 9.68275 3.45021C10.0496 3.29729 10.4432 3.21812 10.8408 3.21725C11.2385 3.21638 11.6324 3.29383 11.9999 3.44516C12.3675 3.59648 12.7014 3.81869 12.9826 4.09903C13.2638 4.37938 13.4866 4.71234 13.6384 5.07879C13.7902 5.44525 13.8679 5.83798 13.867 6.23445C13.8661 6.63092 13.7867 7.02331 13.6333 7.3891C13.48 7.75489 13.2556 8.08687 12.9732 8.36599L8.70357 12.6236C8.64748 12.6796 8.58087 12.724 8.50756 12.7543C8.43425 12.7846 8.35566 12.8002 8.2763 12.8002C8.19694 12.8002 8.11835 12.7846 8.04504 12.7543C7.97172 12.724 7.90512 12.6796 7.84903 12.6236L3.57878 8.36659C3.29253 8.08837 3.06454 7.75626 2.90803 7.3895C2.75153 7.02275 2.66962 6.62866 2.66705 6.2301C2.66449 5.83154 2.74133 5.43644 2.89311 5.06771C3.0449 4.69899 3.2686 4.36399 3.55125 4.08213C3.8339 3.80028 4.16986 3.57719 4.53966 3.42581C4.90945 3.27442 5.30572 3.19776 5.70546 3.20025C6.10521 3.20275 6.50048 3.28436 6.86834 3.44036C7.23621 3.59635 7.56934 3.82362 7.84843 4.10898L7.84903 4.10838Z" fill="#9B9FAA"/>
</g>
</svg>
