<svg width="24" height="24" viewBox="0 0 24 24" fill="none" xmlns="http://www.w3.org/2000/svg">
<g id="Frame 28">
<path id="Vector" d="M11.7731 6.16208L12.4135 6.80063L13.054 6.16208C13.4739 5.73972 13.9733 5.40422 14.5236 5.17483C15.0739 4.94545 15.6643 4.82669 16.2607 4.82539C16.8572 4.82409 17.4481 4.94026 17.9994 5.16724C18.5507 5.39423 19.0516 5.72754 19.4734 6.14806C19.8952 6.56858 20.2295 7.06802 20.4571 7.6177C20.6848 8.16739 20.8013 8.75649 20.8 9.35119C20.7987 9.94589 20.6796 10.5345 20.4495 11.0832C20.2194 11.6318 19.8829 12.1298 19.4593 12.5485L13.0549 18.9349C12.9707 19.0189 12.8708 19.0855 12.7609 19.131C12.6509 19.1764 12.533 19.1998 12.414 19.1998C12.2949 19.1998 12.177 19.1764 12.0671 19.131C11.9571 19.0855 11.8572 19.0189 11.7731 18.9349L5.36768 12.5494C4.93831 12.1321 4.59633 11.6339 4.36156 11.0838C4.1268 10.5336 4.00393 9.9425 4.00009 9.34466C3.99625 8.74682 4.11151 8.15416 4.33918 7.60108C4.56686 7.048 4.90241 6.54549 5.32638 6.12271C5.75036 5.69994 6.25431 5.3653 6.809 5.13823C7.36369 4.91115 7.95809 4.79615 8.55771 4.79989C9.15733 4.80364 9.75023 4.92606 10.302 5.16005C10.8538 5.39404 11.3535 5.73494 11.7722 6.16298L11.7731 6.16208Z" fill="#DEE2E7"/>
</g>
</svg>
