<svg width="20" height="16" viewBox="0 0 20 16" fill="none" xmlns="http://www.w3.org/2000/svg">
<path d="M3.15307 7.19166L10.0161 13.5782L16.8791 7.19166C17.4859 6.62701 17.8268 5.86118 17.8268 5.06265C17.8268 4.26412 17.4859 3.49829 16.8791 2.93364C16.5786 2.65406 16.222 2.43228 15.8294 2.28097C15.4369 2.12966 15.0161 2.05178 14.5912 2.05178C13.7331 2.05178 12.9102 2.369 12.3034 2.93364L10.0161 5.06215L7.72877 2.93465C7.12045 2.37758 6.30022 2.06676 5.44675 2.0699C4.59329 2.07304 3.77573 2.38988 3.17216 2.95141C2.56859 3.51294 2.22791 4.27367 2.22434 5.06788C2.22076 5.86209 2.55458 6.62544 3.15307 7.19166ZM9.25364 1.51364L10.0161 2.22314L10.7785 1.51364C11.2784 1.04435 11.873 0.671572 12.5281 0.416698C13.1833 0.161824 13.8861 0.0298759 14.5961 0.0284289C15.3062 0.026982 16.0096 0.156065 16.6659 0.408266C17.3223 0.660468 17.9186 1.03082 18.4207 1.49806C18.9228 1.96531 19.3208 2.52024 19.5918 3.131C19.8628 3.74176 20.0015 4.39632 20 5.0571C19.9984 5.71788 19.8566 6.37186 19.5827 6.98151C19.3089 7.59116 18.9083 8.14446 18.404 8.60966L10.7796 15.7057C10.6794 15.799 10.5605 15.873 10.4296 15.9235C10.2987 15.974 10.1583 16 10.0166 16C9.8749 16 9.73457 15.974 9.60365 15.9235C9.47273 15.873 9.3538 15.799 9.25364 15.7057L1.62819 8.61066C1.11704 8.14696 0.709911 7.59343 0.430432 6.98218C0.150953 6.37092 0.00468432 5.71411 0.000110683 5.04984C-0.00446296 4.38557 0.13275 3.72707 0.403789 3.11253C0.674828 2.49799 1.0743 1.93965 1.57903 1.4699C2.08376 1.00015 2.6837 0.628332 3.34405 0.376024C4.0044 0.123715 4.71201 -0.00406364 5.42584 9.85017e-05C6.13968 0.00426065 6.84551 0.140281 7.50241 0.40027C8.15932 0.660258 8.7542 1.03904 9.25256 1.51464L9.25364 1.51364Z" fill="white"/>
</svg>
