<svg width="24" height="24" viewBox="0 0 24 24" fill="none" xmlns="http://www.w3.org/2000/svg">
<rect width="24" height="24" rx="12" fill="#0F7EE4"/>
<path d="M16.7985 7.53766L12.2054 6.02739C12.15 6.00913 12.0757 6 12.0013 6C11.927 6 11.8526 6.00913 11.7972 6.02739L7.20411 7.53766C7.09192 7.57418 7 7.69938 7 7.81415V14.1056C7 14.2204 7.07705 14.3717 7.17032 14.4434L11.8297 17.9465C11.877 17.9817 11.9378 18 12 18C12.0621 18 12.1243 17.9817 12.1703 17.9465L16.8296 14.4434C16.9229 14.373 16.9999 14.2217 16.9999 14.1056V7.81415C17.0026 7.69938 16.9107 7.57548 16.7985 7.53766ZM14.4682 9.76524L11.5945 13.5827C11.5743 13.6093 11.5478 13.631 11.5173 13.646C11.4867 13.661 11.453 13.6688 11.4187 13.6688C11.3845 13.6688 11.3507 13.661 11.3202 13.646C11.2897 13.631 11.2632 13.6093 11.243 13.5827L9.53445 11.3133C9.48309 11.2442 9.53445 11.1477 9.62232 11.1477H10.3685C10.4374 11.1477 10.5036 11.1803 10.5442 11.2338L11.4187 12.3945L13.4585 9.68438C13.499 9.63091 13.5639 9.5983 13.6342 9.5983H14.3803C14.4682 9.59961 14.5196 9.69612 14.4682 9.76524Z" fill="white"/>
</svg>
