<svg width="18" height="20" viewBox="0 0 18 20" fill="none" xmlns="http://www.w3.org/2000/svg">
<path d="M11.6667 5.27778C12.6485 5.27778 13.4444 6.12346 13.4444 7.16667M17 7.16667C17 10.2963 14.6122 12.8333 11.6667 12.8333C11.1278 12.8333 10.6077 12.7484 10.1174 12.5905L8.11111 14.7222H6.33333V16.6111H4.55556V18.5H1.88889C1.39797 18.5 1 18.0772 1 17.5556V15.1134C1 14.8629 1.09365 14.6227 1.26035 14.4456L6.56184 8.81274C6.41324 8.29188 6.33333 7.73916 6.33333 7.16667C6.33333 4.03705 8.72116 1.5 11.6667 1.5C14.6122 1.5 17 4.03705 17 7.16667Z" stroke="#323232" stroke-width="1.4" stroke-linecap="round" stroke-linejoin="round"/>
</svg>
