<svg width="24" height="24" viewBox="0 0 24 24" fill="none" xmlns="http://www.w3.org/2000/svg">
<path d="M22.4217 20.3252L18.2029 10.1065C18.125 9.91774 17.9929 9.7564 17.8232 9.64288C17.6535 9.52935 17.4539 9.46875 17.2497 9.46875C17.0456 9.46875 16.846 9.52935 16.6763 9.64288C16.5066 9.7564 16.3745 9.91774 16.2965 10.1065L12.0778 20.3252C12.0253 20.4505 11.9981 20.585 11.9978 20.7208C11.9975 20.8567 12.024 20.9913 12.0758 21.1168C12.1276 21.2424 12.2038 21.3565 12.2998 21.4526C12.3959 21.5486 12.51 21.6248 12.6355 21.6766C12.7611 21.7285 12.8957 21.755 13.0315 21.7547C13.1674 21.7543 13.3018 21.7272 13.4272 21.6747C13.5525 21.6223 13.6662 21.5456 13.7618 21.4491C13.8574 21.3525 13.933 21.2381 13.9842 21.1122L14.8434 19.0315H19.6561L20.5153 21.1122C20.5932 21.301 20.7254 21.4625 20.8951 21.576C21.0648 21.6896 21.2645 21.7502 21.4687 21.7502C21.6382 21.7501 21.805 21.7082 21.9544 21.6283C22.1039 21.5484 22.2313 21.4329 22.3255 21.292C22.4196 21.1511 22.4776 20.9892 22.4943 20.8206C22.511 20.652 22.4859 20.4818 22.4212 20.3252H22.4217ZM15.6951 16.969L17.25 13.2025L18.8048 16.969H15.6951Z" fill="#323232"/>
<path d="M12.555 16.0744C12.7152 15.8531 12.7811 15.5772 12.7381 15.3074C12.6951 15.0376 12.5468 14.7959 12.3258 14.6353C12.3164 14.6283 11.6227 14.1136 10.6153 13.0073C12.4739 10.4911 13.5267 7.62844 13.9561 6.28125H15.4688C15.7423 6.28125 16.0046 6.1726 16.198 5.9792C16.3913 5.78581 16.5 5.5235 16.5 5.25C16.5 4.9765 16.3913 4.71419 16.198 4.5208C16.0046 4.3274 15.7423 4.21875 15.4688 4.21875H10.0312V3.28125C10.0312 3.00775 9.9226 2.74544 9.7292 2.55205C9.53581 2.35865 9.2735 2.25 9 2.25C8.7265 2.25 8.46419 2.35865 8.2708 2.55205C8.0774 2.74544 7.96875 3.00775 7.96875 3.28125V4.21875H2.53125C2.25775 4.21875 1.99544 4.3274 1.80205 4.5208C1.60865 4.71419 1.5 4.9765 1.5 5.25C1.5 5.5235 1.60865 5.78581 1.80205 5.9792C1.99544 6.1726 2.25775 6.28125 2.53125 6.28125H11.7773C11.3311 7.54453 10.5094 9.53906 9.25594 11.3606C7.78359 9.40688 7.23656 8.14266 7.23234 8.13234C7.12456 7.88324 6.92291 7.68668 6.67114 7.58529C6.41937 7.4839 6.13778 7.48585 5.88743 7.59072C5.63709 7.6956 5.43819 7.89494 5.33387 8.14551C5.22954 8.39608 5.22821 8.67767 5.33016 8.92922C5.35734 8.99391 6.01219 10.5338 7.80797 12.8634C7.85109 12.9192 7.89375 12.9736 7.93641 13.028C6.09703 15.1069 4.29234 16.3964 3.53719 16.8127C3.29706 16.9436 3.1188 17.1646 3.04162 17.427C2.96444 17.6894 2.99465 17.9718 3.12563 18.2119C3.2566 18.452 3.47759 18.6303 3.74 18.7074C4.0024 18.7846 4.28472 18.7544 4.52484 18.6234C4.62609 18.5681 6.80297 17.363 9.28875 14.6114C10.3444 15.7402 11.07 16.2727 11.1136 16.3036C11.2233 16.3833 11.3476 16.4405 11.4794 16.4721C11.6113 16.5037 11.748 16.509 11.8819 16.4876C12.0158 16.4663 12.1442 16.4188 12.2597 16.3478C12.3751 16.2768 12.4755 16.1837 12.555 16.0739V16.0744Z" fill="#323232"/>
</svg>
