<svg width="22" height="22" viewBox="0 0 22 22" fill="none" xmlns="http://www.w3.org/2000/svg">
<path d="M5.18011 10.2927L11.0137 15.8809L16.8472 10.2927C17.363 9.79863 17.6527 9.12854 17.6527 8.42982C17.6527 7.7311 17.363 7.06101 16.8472 6.56694C16.5919 6.3223 16.2887 6.12824 15.955 5.99585C15.6213 5.86345 15.2637 5.79531 14.9026 5.79531C14.1732 5.79531 13.4736 6.07287 12.9579 6.56694L11.0137 8.42938L9.06945 6.56782C8.55238 6.08038 7.85519 5.80841 7.12974 5.81116C6.40429 5.81391 5.70937 6.09115 5.19633 6.58249C4.6833 7.07382 4.39373 7.73946 4.39069 8.43439C4.38765 9.12933 4.67139 9.79726 5.18011 10.2927ZM10.3656 5.32443L11.0137 5.94525L11.6617 5.32443C12.0867 4.91381 12.5921 4.58763 13.1489 4.36461C13.7058 4.1416 14.3031 4.02614 14.9067 4.02488C15.5103 4.02361 16.1082 4.13656 16.666 4.35723C17.2239 4.57791 17.7308 4.90197 18.1576 5.31081C18.5844 5.71964 18.9227 6.20521 19.153 6.73962C19.3834 7.27404 19.5013 7.84678 19.5 8.42496C19.4987 9.00314 19.3781 9.57538 19.1453 10.1088C18.9125 10.6423 18.572 11.1264 18.1434 11.5334L11.6627 17.7425C11.5775 17.8241 11.4764 17.8889 11.3651 17.9331C11.2539 17.9773 11.1346 18 11.0141 18C10.8937 18 10.7744 17.9773 10.6631 17.9331C10.5518 17.8889 10.4507 17.8241 10.3656 17.7425L3.88396 11.5343C3.44948 11.1286 3.10342 10.6443 2.86587 10.1094C2.62831 9.57456 2.50398 8.99985 2.50009 8.41861C2.49621 7.83737 2.61284 7.26118 2.84322 6.72346C3.0736 6.18574 3.41315 5.69719 3.84217 5.28616C4.27119 4.87513 4.78114 4.54979 5.34244 4.32902C5.90374 4.10825 6.50521 3.99644 7.11197 4.00009C7.71872 4.00373 8.31869 4.12275 8.87705 4.35024C9.43542 4.57773 9.94107 4.90916 10.3647 5.32531L10.3656 5.32443Z" fill="#9B9FAA"/>
</svg>
