<svg width="195" height="43" viewBox="0 0 195 43" fill="none" xmlns="http://www.w3.org/2000/svg">
<path d="M12.355 0.971461V4.4994C14.2318 2.70987 15.2222 2.04519 17.0468 1.27824C19.0799 0.409038 21.113 0 23.4068 0C30.8615 0 34.9799 4.29489 34.9799 12.1688V24.9512C34.9799 28.2747 35.0842 30.78 35.3969 33.2854H22.5206C22.8334 30.5755 22.9376 28.1724 22.9376 24.9512V14.981C22.9376 11.4019 21.6344 9.61236 19.0278 9.61236C17.3596 9.61236 15.7436 10.3282 14.3882 11.6576C13.5541 12.4756 13.137 13.1914 12.355 14.8787V24.9512C12.355 27.9168 12.5114 30.5244 12.7721 33.2854H0C0.312786 30.8312 0.417048 28.6326 0.417048 24.9512V9.30559C0.417048 5.57313 0.312786 3.22117 0 0.971461H12.355Z" fill="#ED5434"/>
<path d="M62.9461 12.4756V11.0951C62.9461 9.10107 61.4343 7.97622 58.7757 7.97622C56.0127 7.97622 54.6052 8.94768 53.7189 11.453L41.8852 9.6635C43.1364 6.13555 44.2832 4.55053 46.8377 2.91439C49.757 0.971462 53.8232 0.0511297 59.4012 0.0511297C63.676 0.0511297 67.8464 0.869205 70.0359 2.14744C73.2681 4.09037 74.8841 7.20927 74.8841 11.6576V25.5137C74.8841 28.8882 74.9884 30.8312 75.249 33.2854H62.9461V30.4221C61.7471 31.7515 61.0173 32.3139 59.9225 32.8252C57.9937 33.6433 55.3871 34.1546 52.7806 34.1546C49.2357 34.1546 46.2121 33.3876 44.2311 31.956C41.5724 30.0131 40.1649 27.1498 40.1649 23.5196C40.1649 19.7872 41.6246 17.1795 44.8045 15.39C46.577 14.3674 49.7049 13.4471 52.7285 13.038C54.6573 12.7824 58.6193 12.5779 62.9461 12.4756ZM62.9461 21.4233V19.4293C59.3491 19.5315 57.7852 19.6849 56.3776 20.0428C53.6147 20.7075 52.4678 21.7301 52.4678 23.4685C52.4678 25.3603 53.9275 26.4851 56.3255 26.4851C59.8704 26.4851 62.9461 24.1332 62.9461 21.4233Z" fill="#ED5434"/>
<path d="M105.388 33.2854H91.5212C91.2606 32.0583 90.9999 31.0868 90.218 29.1439L80.9908 5.67539C80.6259 4.70393 79.9482 3.22117 78.9577 0.971461H92.7724C92.8766 2.19857 93.0852 3.32343 93.5543 5.11296L98.4547 22.8038L103.355 5.11296C103.824 3.37455 104.033 2.2497 104.137 0.971461H117.952C117.17 2.70987 116.336 4.60166 115.919 5.67539L106.691 29.1439C105.909 31.1379 105.597 32.0583 105.388 33.2854Z" fill="#ED5434"/>
<path d="M121.695 0.971461H134.624C134.311 3.1189 134.207 5.41974 134.207 9.30559V24.9001C134.207 28.3769 134.311 30.8312 134.624 33.2854H121.695C122.008 30.7289 122.112 28.3258 122.112 24.9512V9.30559C122.112 5.77764 122.008 3.42568 121.695 0.971461Z" fill="#ED5434"/>
<path d="M140.139 37.069L149.053 31.4447C150.774 33.541 153.485 34.6147 157.186 34.6147C159.48 34.6147 161.044 34.1034 162.086 33.132C163.233 31.956 163.65 30.6778 163.754 27.9679C162.555 29.0927 161.878 29.5018 160.835 29.962C159.01 30.6778 156.821 31.0357 154.371 31.0357C150.67 31.0357 147.385 30.1153 145.039 28.4281C141.234 25.6671 139.201 21.2699 139.201 15.6968C139.201 5.98216 145.092 0.0511297 154.684 0.0511297C157.29 0.0511297 159.532 0.460167 161.409 1.32937C162.347 1.73841 162.816 2.09631 163.754 3.06778V0.971461H176.109C175.797 3.47681 175.692 5.26635 175.692 8.53864V27.201C175.692 33.3876 173.503 37.7848 169.124 40.3924C166.517 41.9774 161.617 43 156.821 43C152.129 43 147.854 42.1308 144.831 40.648C142.954 39.6766 141.599 38.654 140.139 37.069ZM157.394 22.9572C161.096 22.9572 163.65 19.9917 163.65 15.6968C163.65 11.5042 161.044 8.33413 157.551 8.33413C153.485 8.33413 151.034 11.0951 151.034 15.6457C151.034 20.0428 153.537 22.9572 157.394 22.9572Z" fill="#ED5434"/>
<path d="M182.072 0.971461H195C194.687 3.1189 194.583 5.41974 194.583 9.30559V24.9001C194.583 28.3769 194.687 30.8312 195 33.2854H182.072C182.384 30.7289 182.489 28.3258 182.489 24.9512V9.30559C182.489 5.77764 182.384 3.42568 182.072 0.971461Z" fill="#ED5434"/>
</svg>
