<svg width="24" height="24" viewBox="0 0 24 24" fill="none" xmlns="http://www.w3.org/2000/svg">
<path fill-rule="evenodd" clip-rule="evenodd" d="M11.9997 5.33333C12.9202 5.33333 13.6663 4.58714 13.6663 3.66667C13.6663 2.74619 12.9202 2 11.9997 2C11.0792 2 10.333 2.74619 10.333 3.66667C10.333 4.58714 11.0792 5.33333 11.9997 5.33333ZM11.9997 13.6666C12.9202 13.6666 13.6663 12.9204 13.6663 12C13.6663 11.0795 12.9202 10.3333 11.9997 10.3333C11.0792 10.3333 10.333 11.0795 10.333 12C10.333 12.9204 11.0792 13.6666 11.9997 13.6666ZM13.6663 20.3333C13.6663 21.2538 12.9202 22 11.9997 22C11.0792 22 10.333 21.2538 10.333 20.3333C10.333 19.4129 11.0792 18.6667 11.9997 18.6667C12.9202 18.6667 13.6663 19.4129 13.6663 20.3333Z" fill="#323232"/>
</svg>
