<svg width="24" height="24" viewBox="0 0 24 24" fill="none" xmlns="http://www.w3.org/2000/svg">
<g id="Regular/menu-dots-vertical">
<path id="vector" fill-rule="evenodd" clip-rule="evenodd" d="M11.9997 7.33334C12.644 7.33334 13.1663 6.811 13.1663 6.16667C13.1663 5.52233 12.644 5 11.9997 5C11.3553 5 10.833 5.52233 10.833 6.16667C10.833 6.811 11.3553 7.33334 11.9997 7.33334ZM11.9997 13.1666C12.6441 13.1666 13.1664 12.6443 13.1664 12C13.1664 11.3556 12.6441 10.8333 11.9997 10.8333C11.3554 10.8333 10.8331 11.3556 10.8331 12C10.8331 12.6443 11.3554 13.1666 11.9997 13.1666ZM13.1664 17.8334C13.1664 18.4777 12.6441 19 11.9997 19C11.3554 19 10.8331 18.4777 10.8331 17.8334C10.8331 17.189 11.3554 16.6667 11.9997 16.6667C12.6441 16.6667 13.1664 17.189 13.1664 17.8334Z" fill="#9B9FAA"/>
</g>
</svg>
