<svg width="12" height="13" viewBox="0 0 12 13" fill="none" xmlns="http://www.w3.org/2000/svg">
<path fill-rule="evenodd" clip-rule="evenodd" d="M5.9999 5.20002C6.63642 5.20002 7.24687 4.94717 7.69696 4.49708C8.14705 4.04699 8.3999 3.43654 8.3999 2.80002C8.3999 2.1635 8.14705 1.55306 7.69696 1.10297C7.24687 0.652881 6.63642 0.400024 5.9999 0.400024C5.36338 0.400024 4.75293 0.652881 4.30285 1.10297C3.85276 1.55306 3.5999 2.1635 3.5999 2.80002C3.5999 3.43654 3.85276 4.04699 4.30285 4.49708C4.75293 4.94717 5.36338 5.20002 5.9999 5.20002ZM0.399902 12.4C0.399902 11.6646 0.544751 10.9364 0.826177 10.257C1.1076 9.57757 1.5201 8.96023 2.0401 8.44023C2.56011 7.92022 3.17745 7.50773 3.85688 7.2263C4.5363 6.94487 5.2645 6.80002 5.9999 6.80002C6.7353 6.80002 7.46351 6.94487 8.14293 7.2263C8.82235 7.50773 9.43969 7.92022 9.9597 8.44023C10.4797 8.96023 10.8922 9.57757 11.1736 10.257C11.4551 10.9364 11.5999 11.6646 11.5999 12.4H0.399902Z" fill="#9B9FAA"/>
</svg>
