<svg width="16" height="16" viewBox="0 0 16 16" fill="none" xmlns="http://www.w3.org/2000/svg">
<g id="Frame">
<path id="Vector" d="M7.99992 14.71C4.88859 10.65 3.33325 7.76133 3.33325 6.04333C3.33325 4.80565 3.82492 3.61867 4.70009 2.7435C5.57526 1.86833 6.76224 1.37666 7.99992 1.37666C9.2376 1.37666 10.4246 1.86833 11.2997 2.7435C12.1749 3.61867 12.6666 4.80565 12.6666 6.04333C12.6666 7.76133 11.1113 10.65 7.99992 14.71ZM7.99992 8.71C8.70716 8.71 9.38544 8.42904 9.88554 7.92895C10.3856 7.42885 10.6666 6.75057 10.6666 6.04333C10.6666 5.33609 10.3856 4.65781 9.88554 4.15771C9.38544 3.65761 8.70716 3.37666 7.99992 3.37666C7.29267 3.37666 6.6144 3.65761 6.1143 4.15771C5.6142 4.65781 5.33325 5.33609 5.33325 6.04333C5.33325 6.75057 5.6142 7.42885 6.1143 7.92895C6.6144 8.42904 7.29267 8.71 7.99992 8.71Z" fill="black"/>
</g>
</svg>
