<svg width="24" height="25" viewBox="0 0 24 25" fill="none" xmlns="http://www.w3.org/2000/svg">
<g id="Frame">
<path id="Vector" d="M20 10.6818C20 17.0455 12 22.5 12 22.5C12 22.5 4 17.0455 4 10.6818C4 8.51187 4.84285 6.43079 6.34315 4.8964C7.84344 3.36201 9.87827 2.5 12 2.5C14.1217 2.5 16.1566 3.36201 17.6569 4.8964C19.1571 6.43079 20 8.51187 20 10.6818Z" stroke="#323232" stroke-linecap="round" stroke-linejoin="round"/>
<path id="Vector_2" d="M12 13.5C13.6569 13.5 15 12.1569 15 10.5C15 8.84315 13.6569 7.5 12 7.5C10.3431 7.5 9 8.84315 9 10.5C9 12.1569 10.3431 13.5 12 13.5Z" stroke="#323232" stroke-linecap="round" stroke-linejoin="round"/>
</g>
</svg>
