<svg width="22" height="22" viewBox="0 0 22 22" fill="none" xmlns="http://www.w3.org/2000/svg">
<path fill-rule="evenodd" clip-rule="evenodd" d="M10.9999 4.64101C9.75377 4.64101 8.74355 5.65123 8.74355 6.8974C8.74355 8.14356 9.75377 9.15378 10.9999 9.15378C12.2461 9.15378 13.2563 8.14356 13.2563 6.8974C13.2563 5.65123 12.2461 4.64101 10.9999 4.64101ZM7.10254 6.8974C7.10254 4.74492 8.84746 3 10.9999 3C13.1524 3 14.8973 4.74492 14.8973 6.8974C14.8973 9.04987 13.1524 10.7948 10.9999 10.7948C8.84746 10.7948 7.10254 9.04987 7.10254 6.8974Z" fill="#9B9FAA"/>
<path fill-rule="evenodd" clip-rule="evenodd" d="M9.46123 13.4159C7.39327 13.4159 5.6664 15.1631 5.6664 17.3817V18.1794C5.6664 18.6325 5.29905 18.9999 4.8459 18.9999C4.39274 18.9999 4.02539 18.6325 4.02539 18.1794V17.3817C4.02539 14.3135 6.43123 11.7749 9.46123 11.7749H12.5381C15.5681 11.7749 17.974 14.3135 17.974 17.3817V18.1794C17.974 18.6325 17.6066 18.9999 17.1535 18.9999C16.7003 18.9999 16.333 18.6325 16.333 18.1794V17.3817C16.333 15.1631 14.6061 13.4159 12.5381 13.4159H9.46123Z" fill="#9B9FAA"/>
</svg>
