<svg width="20" height="20" viewBox="0 0 20 20" fill="none" xmlns="http://www.w3.org/2000/svg">
<path fill-rule="evenodd" clip-rule="evenodd" d="M9.8974 3.64101C8.65123 3.64101 7.64101 4.65123 7.64101 5.8974C7.64101 7.14356 8.65123 8.15378 9.8974 8.15378C11.1435 8.15378 12.1538 7.14356 12.1538 5.8974C12.1538 4.65123 11.1435 3.64101 9.8974 3.64101ZM6 5.8974C6 3.74492 7.74492 2 9.8974 2C12.0498 2 13.7948 3.74492 13.7948 5.8974C13.7948 8.04987 12.0498 9.79479 9.8974 9.79479C7.74492 9.79479 6 8.04987 6 5.8974Z" fill="#ED5434"/>
<path fill-rule="evenodd" clip-rule="evenodd" d="M8.43584 12.4159C6.36788 12.4159 4.64101 14.1631 4.64101 16.3817V17.1794C4.64101 17.6325 4.27366 17.9999 3.8205 17.9999C3.36735 17.9999 3 17.6325 3 17.1794V16.3817C3 13.3135 5.40584 10.7749 8.43584 10.7749H11.5127C14.5427 10.7749 16.9486 13.3135 16.9486 16.3817V17.1794C16.9486 17.6325 16.5812 17.9999 16.1281 17.9999C15.6749 17.9999 15.3076 17.6325 15.3076 17.1794V16.3817C15.3076 14.1631 13.5807 12.4159 11.5127 12.4159H8.43584Z" fill="#ED5434"/>
</svg>
