<svg width="22" height="22" viewBox="0 0 22 22" fill="none" xmlns="http://www.w3.org/2000/svg">
<path d="M13.8004 13.9975C14.3562 13.9975 14.9067 13.8866 15.4202 13.6713C15.9338 13.456 16.4004 13.1404 16.7934 12.7426C17.1865 12.3447 17.4983 11.8724 17.711 11.3526C17.9237 10.8328 18.0332 10.2756 18.0332 9.71299C18.0332 9.15034 17.9237 8.59321 17.711 8.07339C17.4983 7.55357 17.1865 7.08126 16.7934 6.68341C16.4004 6.28556 15.9338 5.96997 15.4202 5.75465C14.9067 5.53934 14.3562 5.42852 13.8004 5.42852C12.6778 5.42852 11.6011 5.87991 10.8073 6.68341C10.0135 7.4869 9.56755 8.57667 9.56755 9.71299C9.56755 10.8493 10.0135 11.9391 10.8073 12.7426C11.6011 13.5461 12.6778 13.9975 13.8004 13.9975ZM18.259 13.2163L20.7846 15.7727C20.8519 15.8386 20.9056 15.9174 20.9425 16.0046C20.9794 16.0917 20.9988 16.1854 20.9995 16.2802C21.0003 16.375 20.9824 16.4691 20.9468 16.5568C20.9113 16.6445 20.8589 16.7242 20.7926 16.7912C20.7263 16.8582 20.6475 16.9112 20.5608 16.947C20.474 16.9829 20.3811 17.0009 20.2875 17C20.1938 16.9991 20.1012 16.9793 20.0152 16.9418C19.9292 16.9043 19.8513 16.8499 19.7863 16.7816L17.2607 14.2252C16.1267 15.1163 14.6997 15.5364 13.2704 15.4C11.8411 15.2637 10.5168 14.5811 9.56723 13.4912C8.61763 12.4014 8.11405 10.9861 8.15902 9.5337C8.20399 8.08125 8.79412 6.70073 9.80928 5.67319C10.8244 4.64565 12.1883 4.04832 13.6233 4.00281C15.0582 3.95729 16.4564 4.46701 17.5331 5.4282C18.6098 6.38938 19.2842 7.72979 19.4189 9.17654C19.5536 10.6233 19.1386 12.0676 18.2583 13.2155L18.259 13.2163Z" fill="#EB0A66"/>
<rect x="1" y="4" width="6.24695" height="1.71324" rx="0.856618" fill="#EB0A66"/>
<rect x="1" y="9.31152" width="4.56027" height="1.71324" rx="0.856618" fill="#EB0A66"/>
<rect x="1" y="14.6233" width="6.24695" height="1.71324" rx="0.856618" fill="#EB0A66"/>
</svg>
