<svg width="20" height="20" viewBox="0 0 20 20" fill="none" xmlns="http://www.w3.org/2000/svg">
<g clip-path="url(#clip0_1_3559)">
<path d="M10 3C11.8194 4.72215 14.1939 5.61881 16.6206 5.5C16.9739 6.78585 17.082 8.13456 16.9385 9.46598C16.7949 10.7974 16.4027 12.0844 15.7851 13.2504C15.1675 14.4165 14.3372 15.4378 13.3434 16.2537C12.3495 17.0696 11.2126 17.6635 10 18C8.78743 17.6635 7.65046 17.0696 6.65665 16.2537C5.66283 15.4378 4.83246 14.4165 4.21486 13.2504C3.59727 12.0844 3.20506 10.7974 3.06154 9.46598C2.91803 8.13456 3.02613 6.78585 3.37943 5.5C5.80608 5.61881 8.18064 4.72215 10 3Z" stroke="#ED5434" stroke-width="1.5" stroke-linecap="round" stroke-linejoin="round"/>
<path d="M9.99984 11C10.4601 11 10.8332 10.6269 10.8332 10.1667C10.8332 9.70647 10.4601 9.33337 9.99984 9.33337C9.5396 9.33337 9.1665 9.70647 9.1665 10.1667C9.1665 10.6269 9.5396 11 9.99984 11Z" stroke="#ED5434" stroke-width="1.5" stroke-linecap="round" stroke-linejoin="round"/>
<path d="M10 11V13.0833" stroke="#ED5434" stroke-width="1.5" stroke-linecap="round" stroke-linejoin="round"/>
</g>
<defs>
<clipPath id="clip0_1_3559">
<rect width="20" height="20" fill="white"/>
</clipPath>
</defs>
</svg>
