<svg width="24" height="24" viewBox="0 0 24 24" fill="none" xmlns="http://www.w3.org/2000/svg">
<path d="M12 14.3996C13.3255 14.3996 14.4 13.3251 14.4 11.9996C14.4 10.6741 13.3255 9.59961 12 9.59961C10.6745 9.59961 9.59998 10.6741 9.59998 11.9996C9.59998 13.3251 10.6745 14.3996 12 14.3996Z" stroke="#323232" stroke-width="1.3" stroke-linecap="round" stroke-linejoin="round"/>
<path d="M18.4582 14.6186C18.342 14.8818 18.3074 15.1738 18.3587 15.4569C18.41 15.74 18.545 16.0013 18.7462 16.2069L18.7986 16.2593C18.9609 16.4214 19.0896 16.6139 19.1774 16.8258C19.2653 17.0377 19.3105 17.2648 19.3105 17.4942C19.3105 17.7236 19.2653 17.9507 19.1774 18.1626C19.0896 18.3745 18.9609 18.567 18.7986 18.7291C18.6365 18.8914 18.444 19.0201 18.2321 19.108C18.0202 19.1958 17.793 19.241 17.5637 19.241C17.3343 19.241 17.1072 19.1958 16.8953 19.108C16.6834 19.0201 16.4909 18.8914 16.3288 18.7291L16.2764 18.6768C16.0707 18.4756 15.8095 18.3406 15.5264 18.2893C15.2432 18.2379 14.9513 18.2726 14.688 18.3888C14.4299 18.4994 14.2098 18.6831 14.0547 18.9172C13.8996 19.1514 13.8164 19.4257 13.8153 19.7066V19.8549C13.8153 20.3179 13.6314 20.7618 13.3041 21.0892C12.9767 21.4165 12.5328 21.6004 12.0698 21.6004C11.6069 21.6004 11.163 21.4165 10.8356 21.0892C10.5083 20.7618 10.3244 20.3179 10.3244 19.8549V19.7764C10.3176 19.4875 10.2241 19.2074 10.056 18.9723C9.88794 18.7373 9.65303 18.5583 9.38184 18.4586C9.11861 18.3424 8.82662 18.3077 8.54351 18.3591C8.2604 18.4104 7.99916 18.5454 7.79348 18.7466L7.74112 18.7989C7.57901 18.9612 7.38651 19.09 7.17461 19.1778C6.96272 19.2656 6.73559 19.3109 6.50621 19.3109C6.27683 19.3109 6.0497 19.2656 5.8378 19.1778C5.62591 19.09 5.4334 18.9612 5.2713 18.7989C5.10901 18.6368 4.98027 18.4443 4.89243 18.2324C4.80459 18.0205 4.75938 17.7934 4.75938 17.564C4.75938 17.3346 4.80459 17.1075 4.89243 16.8956C4.98027 16.6837 5.10901 16.4912 5.2713 16.3291L5.32366 16.2768C5.52486 16.0711 5.65982 15.8098 5.71116 15.5267C5.76249 15.2436 5.72783 14.9516 5.61166 14.6884C5.50103 14.4303 5.31734 14.2101 5.08319 14.0551C4.84905 13.9 4.57467 13.8168 4.29384 13.8157H4.14548C3.68256 13.8157 3.23859 13.6318 2.91126 13.3044C2.58392 12.9771 2.40002 12.5331 2.40002 12.0702C2.40002 11.6073 2.58392 11.1633 2.91126 10.836C3.23859 10.5087 3.68256 10.3248 4.14548 10.3248H4.22402C4.51289 10.318 4.79305 10.2245 5.02807 10.0564C5.26309 9.88831 5.4421 9.6534 5.54184 9.38221C5.65802 9.11898 5.69267 8.82699 5.64134 8.54388C5.59 8.26077 5.45504 7.99953 5.25384 7.79385L5.20148 7.74148C5.03919 7.57938 4.91045 7.38687 4.82261 7.17498C4.73477 6.96308 4.68956 6.73595 4.68956 6.50657C4.68956 6.27719 4.73477 6.05006 4.82261 5.83817C4.91045 5.62627 5.03919 5.43377 5.20148 5.27166C5.36358 5.10938 5.55609 4.98063 5.76798 4.8928C5.97988 4.80496 6.20701 4.75974 6.43639 4.75974C6.66577 4.75974 6.8929 4.80496 7.10479 4.8928C7.31669 4.98063 7.50919 5.10938 7.6713 5.27166L7.72366 5.32403C7.92934 5.52522 8.19058 5.66019 8.47369 5.71152C8.7568 5.76285 9.0488 5.7282 9.31202 5.61203H9.38184C9.63997 5.5014 9.86011 5.3177 10.0152 5.08356C10.1702 4.84942 10.2535 4.57504 10.2546 4.29421V4.14585C10.2546 3.68292 10.4385 3.23896 10.7658 2.91162C11.0931 2.58429 11.5371 2.40039 12 2.40039C12.4629 2.40039 12.9069 2.58429 13.2342 2.91162C13.5616 3.23896 13.7455 3.68292 13.7455 4.14585V4.22439C13.7466 4.50522 13.8298 4.7796 13.9849 5.01374C14.1399 5.24789 14.3601 5.43158 14.6182 5.54221C14.8814 5.65838 15.1734 5.69304 15.4565 5.6417C15.7396 5.59037 16.0009 5.4554 16.2066 5.25421L16.2589 5.20185C16.421 5.03956 16.6135 4.91082 16.8254 4.82298C17.0373 4.73514 17.2645 4.68993 17.4938 4.68993C17.7232 4.68993 17.9504 4.73514 18.1622 4.82298C18.3741 4.91082 18.5666 5.03956 18.7288 5.20185C18.891 5.36395 19.0198 5.55645 19.1076 5.76835C19.1955 5.98024 19.2407 6.20737 19.2407 6.43675C19.2407 6.66613 19.1955 6.89326 19.1076 7.10516C19.0198 7.31705 18.891 7.50956 18.7288 7.67166L18.6764 7.72403C18.4752 7.92971 18.3402 8.19095 18.2889 8.47406C18.2376 8.75717 18.2722 9.04916 18.3884 9.31239V9.38221C18.499 9.64034 18.6827 9.86048 18.9169 10.0155C19.151 10.1706 19.4254 10.2538 19.7062 10.2549H19.8546C20.3175 10.2549 20.7615 10.4388 21.0888 10.7662C21.4161 11.0935 21.6 11.5375 21.6 12.0004C21.6 12.4633 21.4161 12.9073 21.0888 13.2346C20.7615 13.562 20.3175 13.7458 19.8546 13.7458H19.776C19.4952 13.747 19.2208 13.8302 18.9867 13.9852C18.7525 14.1403 18.5688 14.3604 18.4582 14.6186Z" stroke="#323232" stroke-width="1.3" stroke-linecap="round" stroke-linejoin="round"/>
</svg>
