<svg width="20" height="20" viewBox="0 0 20 20" fill="none" xmlns="http://www.w3.org/2000/svg">
<path d="M6.30769 9.3945H5.69231V10.5945H6.30769V9.3945ZM13.6923 10.5945H14.3077V9.3945H13.6923V10.5945ZM6.30836 12.9922L5.69297 12.9915L5.69164 14.1915L6.30703 14.1922L6.30836 12.9922ZM13.6917 14.2L14.3071 14.2006L14.3083 13.0006L13.6929 13L13.6917 14.2ZM6.3081 5.79686L5.69271 5.79646L5.6919 6.99646L6.30729 6.99686L6.3081 5.79686ZM11.2304 7L11.8457 7.0004L11.8466 5.8004L11.2312 5.8L11.2304 7ZM13.6923 1.6L14.1275 1.17574L13.9472 1H13.6923V1.6ZM17.3846 5.2H18V4.95147L17.8198 4.77574L17.3846 5.2ZM6.30769 10.5945H13.6923V9.3945H6.30769V10.5945ZM6.30703 14.1922L13.6917 14.2L13.6929 13L6.30836 12.9922L6.30703 14.1922ZM6.30729 6.99686L11.2304 7L11.2312 5.8L6.3081 5.79686L6.30729 6.99686ZM16.1538 17.8H3.84615V19H16.1538V17.8ZM3.23077 17.2V2.8H2V17.2H3.23077ZM3.84615 2.2H13.6923V1H3.84615V2.2ZM16.7692 5.2V17.2H18V5.2H16.7692ZM13.2571 2.02426L16.9494 5.62426L17.8198 4.77574L14.1275 1.17574L13.2571 2.02426ZM3.84615 17.8C3.50629 17.8 3.23077 17.5313 3.23077 17.2H2C2 18.1941 2.82655 19 3.84615 19V17.8ZM16.1538 19C17.1734 19 18 18.1941 18 17.2H16.7692C16.7692 17.5313 16.4937 17.8 16.1538 17.8V19ZM3.23077 2.8C3.23077 2.46863 3.50629 2.2 3.84615 2.2V1C2.82655 1 2 1.80589 2 2.8H3.23077Z" fill="#ED5434"/>
</svg>
