<svg width="24" height="24" viewBox="0 0 24 24" fill="none" xmlns="http://www.w3.org/2000/svg">
<path fill-rule="evenodd" clip-rule="evenodd" d="M11.9999 5.33333C12.9204 5.33333 13.6666 4.58714 13.6666 3.66667C13.6666 2.74619 12.9204 2 11.9999 2C11.0794 2 10.3333 2.74619 10.3333 3.66667C10.3333 4.58714 11.0794 5.33333 11.9999 5.33333ZM11.9999 13.6666C12.9204 13.6666 13.6666 12.9204 13.6666 12C13.6666 11.0795 12.9204 10.3333 11.9999 10.3333C11.0794 10.3333 10.3333 11.0795 10.3333 12C10.3333 12.9204 11.0794 13.6666 11.9999 13.6666ZM13.6666 20.3333C13.6666 21.2538 12.9204 22 11.9999 22C11.0794 22 10.3333 21.2538 10.3333 20.3333C10.3333 19.4129 11.0794 18.6667 11.9999 18.6667C12.9204 18.6667 13.6666 19.4129 13.6666 20.3333Z" fill="#323232"/>
</svg>
