<svg width="20" height="20" viewBox="0 0 20 20" fill="none" xmlns="http://www.w3.org/2000/svg">
<path fill-rule="evenodd" clip-rule="evenodd" d="M9.64284 5.71436C10.2346 5.71436 10.7143 6.1141 10.7143 6.60721V9.80881L12.5433 11.333C12.9617 11.6817 12.9617 12.247 12.5433 12.5957C12.1249 12.9444 11.4465 12.9444 11.0281 12.5957L8.88523 10.81C8.68429 10.6425 8.57141 10.4154 8.57141 10.1786V6.60721C8.57141 6.1141 9.05111 5.71436 9.64284 5.71436Z" fill="#ED5434"/>
<path fill-rule="evenodd" clip-rule="evenodd" d="M14.4992 4.83366C13.2269 3.72587 11.5903 3.1242 9.90164 3.14344C8.21303 3.16269 6.59061 3.80149 5.34395 4.93798C4.09728 6.07448 3.31362 7.6291 3.14249 9.30524C3.09441 9.77619 2.67276 10.1191 2.20072 10.0711C1.72868 10.0231 1.38499 9.60247 1.43308 9.13152C1.64699 7.03634 2.62656 5.09306 4.1849 3.67245C5.74323 2.25183 7.77125 1.45332 9.88201 1.42927C11.9928 1.40522 14.0385 2.1573 15.629 3.54204C17.2195 4.92677 18.2433 6.84722 18.5051 8.93698C18.7669 11.0267 18.2484 13.1395 17.0486 14.8722C15.8487 16.605 14.0514 17.8363 11.9997 18.3314C9.94792 18.8264 7.78529 18.5505 5.92441 17.5563C4.831 16.9722 3.88673 16.164 3.14691 15.1955V16.9327C3.14691 17.406 2.76227 17.7898 2.28778 17.7898C1.8133 17.7898 1.42866 17.406 1.42866 16.9327V12.647C1.42866 12.1736 1.8133 11.7898 2.28778 11.7898H2.69731C2.71065 11.7895 2.72396 11.7895 2.73724 11.7898H6.58343C7.05791 11.7898 7.44256 12.1736 7.44256 12.647C7.44256 13.1203 7.05791 13.5041 6.58343 13.5041H4.07217C4.70751 14.5704 5.62545 15.452 6.73555 16.0451C8.22426 16.8405 9.95436 17.0612 11.5958 16.6651C13.2372 16.2691 14.675 15.284 15.6349 13.8978C16.5948 12.5116 17.0096 10.8214 16.8001 9.14961C16.5906 7.4778 15.7716 5.94144 14.4992 4.83366Z" fill="#ED5434"/>
</svg>
