<svg width="13" height="14" viewBox="0 0 13 14" fill="none" xmlns="http://www.w3.org/2000/svg">
<path id="Vector" d="M12.2582 1.79394L6.74652 0.031953C6.68001 0.010651 6.5908 0 6.50159 0C6.41237 0 6.32316 0.010651 6.25666 0.031953L0.74493 1.79394C0.6103 1.83654 0.5 1.98261 0.5 2.11651V9.45658C0.5 9.59048 0.592457 9.76698 0.704378 9.85067L6.29559 13.9376C6.35236 13.9787 6.42535 14 6.49997 14C6.57458 14 6.64919 13.9787 6.70434 13.9376L12.2956 9.85067C12.4075 9.7685 12.4999 9.592 12.4999 9.45658V2.11651C12.5032 1.98261 12.3929 1.83806 12.2582 1.79394ZM9.46183 4.39278L6.01335 8.84643C5.98911 8.87756 5.95737 8.90288 5.92073 8.92033C5.88409 8.93779 5.84358 8.94688 5.80248 8.94688C5.76139 8.94688 5.72087 8.93779 5.68423 8.92033C5.64759 8.90288 5.61586 8.87756 5.59162 8.84643L3.54135 6.19889C3.47971 6.11825 3.54135 6.00565 3.64678 6.00565H4.54215C4.62488 6.00565 4.70436 6.04369 4.75302 6.10607L5.80248 7.46028L8.25016 4.29845C8.29882 4.23606 8.37668 4.19802 8.46102 4.19802H9.3564C9.46183 4.19954 9.52347 4.31214 9.46183 4.39278Z" fill="#0F7EE4"/>
</svg>
